<svg xmlns="http://www.w3.org/2000/svg" viewBox="0 0 320 220" role="img" aria-labelledby="title">
  <title id="title">Mặt trăng tím trên mây xanh</title>
  <defs>
    <linearGradient id="moon" x1="0" y1="0" x2="1" y2="1"><stop stop-color="#d9ceff"/><stop offset="1" stop-color="#9b8cf2"/></linearGradient>
    <linearGradient id="cloud" x1="0" y1="0" x2="0" y2="1"><stop stop-color="#d8eaff"/><stop offset="1" stop-color="#93b8f4"/></linearGradient>
  </defs>
  <circle cx="160" cy="103" r="62" fill="url(#moon)" opacity=".18"/>
  <path d="M178 34a66 66 0 1 0 53 105 70 70 0 0 1-53-105Z" fill="url(#moon)"/>
  <g fill="#eef4ff">
    <path d="m65 48 4 10 10 4-10 4-4 10-4-10-10-4 10-4Z"/><path d="m256 70 3 8 8 3-8 3-3 8-3-8-8-3 8-3Z"/><circle cx="89" cy="105" r="4"/><circle cx="245" cy="119" r="3"/>
  </g>
  <path d="M49 174c0-19 16-35 36-35 7 0 14 2 20 6 9-20 29-34 53-34 29 0 53 21 57 49 5-3 11-5 18-5 17 0 31 12 35 28H49Z" fill="url(#cloud)"/>
  <path d="M86 183h154" stroke="#eef4ff" stroke-width="5" stroke-linecap="round" opacity=".5"/>
</svg>
